<svg width="36" height="45" viewBox="0 0 36 45" fill="none" xmlns="http://www.w3.org/2000/svg">
<path d="M3.3282 37.1094V9.09707C3.3282 7.87673 3.06934 6.8228 2.55162 5.93528C2.0339 5.04777 1.38675 4.60401 0.610169 4.60401V3.38367C0.869029 3.34669 2.88444 2.2188 6.65639 0C6.91525 0.073959 7.22958 0.184899 7.59938 0.332819C7.96918 0.443759 8.44992 0.795069 9.0416 1.38675C9.67026 1.97843 9.98459 2.66256 9.98459 3.43914C10.2065 3.3282 10.8351 2.97689 11.8706 2.38521C14.6071 0.832048 16.2897 0.0554692 16.9183 0.0554692C17.584 0.0554692 18.3051 0.388289 19.0817 1.05393C19.8952 1.71957 20.5054 2.51464 20.9122 3.43914C20.9861 3.40216 21.7442 3.01387 23.1864 2.27427C26.0709 0.795069 27.8089 0.0554692 28.4006 0.0554692C29.584 0.0554692 30.6934 0.832048 31.7288 2.38521C32.7643 3.93837 33.282 5.36209 33.282 6.65639V34.5578C33.282 36.5917 34.188 37.7935 36 38.1633V39.3837L29.9538 42.7673C29.1402 42.4345 28.3821 41.8983 27.6795 41.1587C26.9769 40.3821 26.6256 39.661 26.6256 38.9954V11.8151C26.6256 9.5963 26.2558 8.06163 25.5162 7.21109C24.8136 6.32357 23.5193 5.84283 21.6333 5.76887V34.5578C21.6333 36.5917 22.5393 37.7935 24.3513 38.1633V39.3837L18.3051 42.7673C17.4915 42.4345 16.7334 41.8983 16.0308 41.1587C15.3282 40.3821 14.9769 39.661 14.9769 38.9954V11.8151C14.9769 9.48536 14.6256 7.89522 13.923 7.04468C13.2573 6.19414 11.9445 5.76887 9.98459 5.76887V34.225C9.98459 35.5932 10.1325 36.5732 10.4284 37.1649C10.7242 37.7565 11.3344 38.0524 12.2589 38.0524V39.772L0.887519 44.5424L0 42.7673C0.813559 42.7673 1.59014 42.2866 2.32974 41.3251C2.99538 40.4006 3.3282 38.9954 3.3282 37.1094Z" fill="url(#paint0_linear)"/>
<defs>
<linearGradient id="paint0_linear" x1="-5.77812" y1="-7.81202" x2="58.4284" y2="71.0478" gradientUnits="userSpaceOnUse">
<stop offset="0.0867726"/>
<stop offset="0.590475" stop-color="#B12A5B"/>
</linearGradient>
</defs>
</svg>
