<svg width="82" height="80" viewBox="0 0 82 80" fill="none" xmlns="http://www.w3.org/2000/svg">
<path d="M4.1 56.676V25.366C4.1 24.002 3.81067 22.824 3.232 21.832C2.65333 20.84 1.93 20.344 1.062 20.344V18.98C1.35133 18.9387 3.604 17.678 7.82 15.198C8.10933 15.2807 8.46067 15.4047 8.874 15.57C9.28733 15.694 9.82467 16.0867 10.486 16.748C11.1887 17.4093 11.54 18.174 11.54 19.042C11.788 18.918 12.4907 18.5253 13.648 17.864C16.7067 16.128 18.5873 15.26 19.29 15.26C20.034 15.26 20.84 15.632 21.708 16.376C22.6173 17.12 23.2993 18.0087 23.754 19.042C23.8367 19.0007 24.684 18.5667 26.296 17.74C29.52 16.0867 31.4627 15.26 32.124 15.26C33.4467 15.26 34.6867 16.128 35.844 17.864C37.0013 19.6 37.58 21.1913 37.58 22.638V53.824C37.58 56.0973 38.5927 57.4407 40.618 57.854V59.218L33.86 63C32.9507 62.628 32.1033 62.0287 31.318 61.202C30.5327 60.334 30.14 59.528 30.14 58.784V28.404C30.14 25.924 29.7267 24.2087 28.9 23.258C28.1147 22.266 26.668 21.7287 24.56 21.646V53.824C24.56 56.0973 25.5727 57.4407 27.598 57.854V59.218L20.84 63C19.9307 62.628 19.0833 62.0287 18.298 61.202C17.5127 60.334 17.12 59.528 17.12 58.784V28.404C17.12 25.8 16.7273 24.0227 15.942 23.072C15.198 22.1213 13.7307 21.646 11.54 21.646V53.452C11.54 54.9813 11.7053 56.0767 12.036 56.738C12.3667 57.3993 13.0487 57.73 14.082 57.73V59.652L1.372 64.984L0.38 63C1.28933 63 2.15733 62.4627 2.984 61.388C3.728 60.3547 4.1 58.784 4.1 56.676Z" fill="url(#paint0_linear)"/>
<path d="M47.7266 59.2734C46.0495 59.2734 44.7324 58.7767 43.7754 57.7832C42.8184 56.7897 42.3398 55.4134 42.3398 53.6543C42.3398 51.9408 42.6771 50.3001 43.3516 48.7324C44.0352 47.1556 44.9375 45.9297 46.0586 45.0547C47.1797 44.1797 48.4147 43.7422 49.7637 43.7422C51.1582 43.7422 52.2064 44.0475 52.9082 44.6582C53.61 45.2598 53.9609 46.1029 53.9609 47.1875C53.9609 48.8281 53.2044 50.1178 51.6914 51.0566C50.1784 51.9863 48.0137 52.4512 45.1973 52.4512H44.7461L44.6914 53.5449C44.6914 54.7389 44.9694 55.6732 45.5254 56.3477C46.0905 57.013 46.9609 57.3457 48.1367 57.3457C48.7109 57.3457 49.2988 57.2637 49.9004 57.0996C50.5111 56.9355 51.2676 56.6348 52.1699 56.1973V58.1934C51.3132 58.5944 50.5566 58.8724 49.9004 59.0273C49.2441 59.1914 48.5195 59.2734 47.7266 59.2734ZM49.627 45.6973C48.6882 45.6973 47.804 46.1257 46.9746 46.9824C46.1543 47.8392 45.5254 49.0286 45.0879 50.5508H45.252C47.3301 50.5508 48.9206 50.2819 50.0234 49.7441C51.1354 49.1973 51.6914 48.4089 51.6914 47.3789C51.6914 46.8958 51.5228 46.4948 51.1855 46.1758C50.8574 45.8568 50.3379 45.6973 49.627 45.6973ZM56.1484 44.0156H58.4453L59.457 51.4668C59.5482 52.0957 59.6348 53.0254 59.7168 54.2559C59.8079 55.4772 59.8535 56.4616 59.8535 57.209H59.9355C60.2546 56.416 60.651 55.5046 61.125 54.4746C61.599 53.4447 61.9499 52.7337 62.1777 52.3418L66.6211 44.0156H69.0547L59.5391 61.543C58.6914 63.1107 57.8529 64.1999 57.0234 64.8105C56.194 65.4212 55.196 65.7266 54.0293 65.7266C53.373 65.7266 52.735 65.6309 52.1152 65.4395V63.5938C52.6895 63.7578 53.2865 63.8398 53.9062 63.8398C54.6536 63.8398 55.2917 63.6074 55.8203 63.1426C56.3581 62.6868 56.8776 62.0078 57.3789 61.1055L58.418 59.2461L56.1484 44.0156ZM74.4688 59.2734C72.7917 59.2734 71.4746 58.7767 70.5176 57.7832C69.5605 56.7897 69.082 55.4134 69.082 53.6543C69.082 51.9408 69.4193 50.3001 70.0938 48.7324C70.7773 47.1556 71.6797 45.9297 72.8008 45.0547C73.9219 44.1797 75.1569 43.7422 76.5059 43.7422C77.9004 43.7422 78.9486 44.0475 79.6504 44.6582C80.3522 45.2598 80.7031 46.1029 80.7031 47.1875C80.7031 48.8281 79.9466 50.1178 78.4336 51.0566C76.9206 51.9863 74.7559 52.4512 71.9395 52.4512H71.4883L71.4336 53.5449C71.4336 54.7389 71.7116 55.6732 72.2676 56.3477C72.8327 57.013 73.7031 57.3457 74.8789 57.3457C75.4531 57.3457 76.041 57.2637 76.6426 57.0996C77.2533 56.9355 78.0098 56.6348 78.9121 56.1973V58.1934C78.0553 58.5944 77.2988 58.8724 76.6426 59.0273C75.9863 59.1914 75.2617 59.2734 74.4688 59.2734ZM76.3691 45.6973C75.4303 45.6973 74.5462 46.1257 73.7168 46.9824C72.8965 47.8392 72.2676 49.0286 71.8301 50.5508H71.9941C74.0723 50.5508 75.6628 50.2819 76.7656 49.7441C77.8776 49.1973 78.4336 48.4089 78.4336 47.3789C78.4336 46.8958 78.265 46.4948 77.9277 46.1758C77.5996 45.8568 77.0801 45.6973 76.3691 45.6973Z" fill="url(#paint1_linear)"/>
<defs>
<linearGradient id="paint0_linear" x1="5.70588" y1="5.97015" x2="56.5338" y2="47.4199" gradientUnits="userSpaceOnUse">
<stop offset="0.0848458"/>
<stop offset="0.557704" stop-color="#B12A5B"/>
</linearGradient>
<linearGradient id="paint1_linear" x1="58.3939" y1="37.6364" x2="62.5786" y2="64.2548" gradientUnits="userSpaceOnUse">
<stop/>
<stop offset="0.565241" stop-color="#B12A5B"/>
</linearGradient>
</defs>
</svg>
