<svg width="70" height="67" viewBox="0 0 70 67" fill="none" xmlns="http://www.w3.org/2000/svg">
<path d="M3.6 46.696V20.436C3.6 19.292 3.35733 18.304 2.872 17.472C2.38667 16.64 1.78 16.224 1.052 16.224V15.08C1.29467 15.0453 3.184 13.988 6.72 11.908C6.96267 11.9773 7.25733 12.0813 7.604 12.22C7.95067 12.324 8.40133 12.6533 8.956 13.208C9.54533 13.7627 9.84 14.404 9.84 15.132C10.048 15.028 10.6373 14.6987 11.608 14.144C14.1733 12.688 15.7507 11.96 16.34 11.96C16.964 11.96 17.64 12.272 18.368 12.896C19.1307 13.52 19.7027 14.2653 20.084 15.132C20.1533 15.0973 20.864 14.7333 22.216 14.04C24.92 12.6533 26.5493 11.96 27.104 11.96C28.2133 11.96 29.2533 12.688 30.224 14.144C31.1947 15.6 31.68 16.9347 31.68 18.148V44.304C31.68 46.2107 32.5293 47.3373 34.228 47.684V48.828L28.56 52C27.7973 51.688 27.0867 51.1853 26.428 50.492C25.7693 49.764 25.44 49.088 25.44 48.464V22.984C25.44 20.904 25.0933 19.4653 24.4 18.668C23.7413 17.836 22.528 17.3853 20.76 17.316V44.304C20.76 46.2107 21.6093 47.3373 23.308 47.684V48.828L17.64 52C16.8773 51.688 16.1667 51.1853 15.508 50.492C14.8493 49.764 14.52 49.088 14.52 48.464V22.984C14.52 20.8 14.1907 19.3093 13.532 18.512C12.908 17.7147 11.6773 17.316 9.84 17.316V43.992C9.84 45.2747 9.97867 46.1933 10.256 46.748C10.5333 47.3027 11.1053 47.58 11.972 47.58V49.192L1.312 53.664L0.48 52C1.24267 52 1.97067 51.5493 2.664 50.648C3.288 49.7813 3.6 48.464 3.6 46.696Z" fill="url(#paint0_linear)"/>
<path d="M41.0078 51.2344C39.5703 51.2344 38.4414 50.8086 37.6211 49.957C36.8008 49.1055 36.3906 47.9258 36.3906 46.418C36.3906 44.9492 36.6797 43.543 37.2578 42.1992C37.8438 40.8477 38.6172 39.7969 39.5781 39.0469C40.5391 38.2969 41.5977 37.9219 42.7539 37.9219C43.9492 37.9219 44.8477 38.1836 45.4492 38.707C46.0508 39.2227 46.3516 39.9453 46.3516 40.875C46.3516 42.2812 45.7031 43.3867 44.4062 44.1914C43.1094 44.9883 41.2539 45.3867 38.8398 45.3867H38.4531L38.4062 46.3242C38.4062 47.3477 38.6445 48.1484 39.1211 48.7266C39.6055 49.2969 40.3516 49.582 41.3594 49.582C41.8516 49.582 42.3555 49.5117 42.8711 49.3711C43.3945 49.2305 44.043 48.9727 44.8164 48.5977V50.3086C44.082 50.6523 43.4336 50.8906 42.8711 51.0234C42.3086 51.1641 41.6875 51.2344 41.0078 51.2344ZM42.6367 39.5977C41.832 39.5977 41.0742 39.9648 40.3633 40.6992C39.6602 41.4336 39.1211 42.4531 38.7461 43.7578H38.8867C40.668 43.7578 42.0312 43.5273 42.9766 43.0664C43.9297 42.5977 44.4062 41.9219 44.4062 41.0391C44.4062 40.625 44.2617 40.2812 43.9727 40.0078C43.6914 39.7344 43.2461 39.5977 42.6367 39.5977ZM48.2266 38.1562H50.1953L51.0625 44.543C51.1406 45.082 51.2148 45.8789 51.2852 46.9336C51.3633 47.9805 51.4023 48.8242 51.4023 49.4648H51.4727C51.7461 48.7852 52.0859 48.0039 52.4922 47.1211C52.8984 46.2383 53.1992 45.6289 53.3945 45.293L57.2031 38.1562H59.2891L51.1328 53.1797C50.4062 54.5234 49.6875 55.457 48.9766 55.9805C48.2656 56.5039 47.4102 56.7656 46.4102 56.7656C45.8477 56.7656 45.3008 56.6836 44.7695 56.5195V54.9375C45.2617 55.0781 45.7734 55.1484 46.3047 55.1484C46.9453 55.1484 47.4922 54.9492 47.9453 54.5508C48.4062 54.1602 48.8516 53.5781 49.2812 52.8047L50.1719 51.2109L48.2266 38.1562ZM63.9297 51.2344C62.4922 51.2344 61.3633 50.8086 60.543 49.957C59.7227 49.1055 59.3125 47.9258 59.3125 46.418C59.3125 44.9492 59.6016 43.543 60.1797 42.1992C60.7656 40.8477 61.5391 39.7969 62.5 39.0469C63.4609 38.2969 64.5195 37.9219 65.6758 37.9219C66.8711 37.9219 67.7695 38.1836 68.3711 38.707C68.9727 39.2227 69.2734 39.9453 69.2734 40.875C69.2734 42.2812 68.625 43.3867 67.3281 44.1914C66.0312 44.9883 64.1758 45.3867 61.7617 45.3867H61.375L61.3281 46.3242C61.3281 47.3477 61.5664 48.1484 62.043 48.7266C62.5273 49.2969 63.2734 49.582 64.2812 49.582C64.7734 49.582 65.2773 49.5117 65.793 49.3711C66.3164 49.2305 66.9648 48.9727 67.7383 48.5977V50.3086C67.0039 50.6523 66.3555 50.8906 65.793 51.0234C65.2305 51.1641 64.6094 51.2344 63.9297 51.2344ZM65.5586 39.5977C64.7539 39.5977 63.9961 39.9648 63.2852 40.6992C62.582 41.4336 62.043 42.4531 61.668 43.7578H61.8086C63.5898 43.7578 64.9531 43.5273 65.8984 43.0664C66.8516 42.5977 67.3281 41.9219 67.3281 41.0391C67.3281 40.625 67.1836 40.2812 66.8945 40.0078C66.6133 39.7344 66.168 39.5977 65.5586 39.5977Z" fill="#B12A5B"/>
<defs>
<linearGradient id="paint0_linear" x1="5" y1="5" x2="47.6909" y2="40.3337" gradientUnits="userSpaceOnUse">
<stop offset="0.0848458"/>
<stop offset="0.557704" stop-color="#B12A5B"/>
</linearGradient>
</defs>
</svg>
